<?xml version="1.0" encoding="UTF-8" standalone="no"?>
<!-- Created with Inkscape (http://www.inkscape.org/) -->

<svg
   width="50mm"
   height="50mm"
   viewBox="0 0 50 50"
   version="1.1"
   id="svg1"
   xml:space="preserve"
   inkscape:version="1.3.2 (091e20e, 2023-11-25, custom)"
   sodipodi:docname="Planhandler.svg"
   xmlns:inkscape="http://www.inkscape.org/namespaces/inkscape"
   xmlns:sodipodi="http://sodipodi.sourceforge.net/DTD/sodipodi-0.dtd"
   xmlns:xlink="http://www.w3.org/1999/xlink"
   xmlns="http://www.w3.org/2000/svg"
   xmlns:svg="http://www.w3.org/2000/svg"><sodipodi:namedview
     id="namedview1"
     pagecolor="#ffffff"
     bordercolor="#000000"
     borderopacity="0.25"
     inkscape:showpageshadow="2"
     inkscape:pageopacity="0.0"
     inkscape:pagecheckerboard="0"
     inkscape:deskcolor="#d1d1d1"
     inkscape:document-units="mm"
     inkscape:zoom="1.3469697"
     inkscape:cx="308.84139"
     inkscape:cy="216.0405"
     inkscape:window-width="1920"
     inkscape:window-height="1057"
     inkscape:window-x="1672"
     inkscape:window-y="340"
     inkscape:window-maximized="1"
     inkscape:current-layer="layer1" /><defs
     id="defs1"><linearGradient
       id="linearGradient14"
       inkscape:collect="always"><stop
         style="stop-color:#000000;stop-opacity:1;"
         offset="0"
         id="stop16" /><stop
         style="stop-color:#003800;stop-opacity:1;"
         offset="0.23469755"
         id="stop14" /><stop
         style="stop-color:#008200;stop-opacity:1;"
         offset="1"
         id="stop15" /></linearGradient><linearGradient
       inkscape:collect="always"
       xlink:href="#linearGradient14"
       id="linearGradient15"
       x1="201.32262"
       y1="223.89594"
       x2="269.25674"
       y2="175.51419"
       gradientUnits="userSpaceOnUse"
       spreadMethod="pad"
       gradientTransform="matrix(0.26458333,0,0,0.26458333,-34.964286,-26.714286)" /></defs><g
     inkscape:groupmode="layer"
     id="layer3"
     inkscape:label="Kartenfüllung"
     style="display:inline" /><g
     inkscape:label="Kartenkontur"
     inkscape:groupmode="layer"
     id="layer1"
     style="display:inline"><g
       id="g19"
       transform="translate(-4.9397906,1.4089713)"><path
         style="display:inline;fill:url(#linearGradient15);stroke:none;stroke-width:0.093;stroke-linecap:round;stroke-linejoin:miter;stroke-dasharray:none;stroke-opacity:1;paint-order:markers fill stroke"
         d="m 31.105058,14.780291 c -1.790639,0.193562 -3.558185,0.595652 -5.28007,1.120884 -2.677247,0.838991 -5.250616,2.046944 -7.561831,3.640111 -0.05492,0.218615 0.270066,0.351658 0.364382,0.531019 1.83629,2.027563 3.704145,4.035567 5.557536,6.041855 0.467796,0.656283 0.797959,1.455859 0.753872,2.268519 0.04444,0.735777 -0.131451,1.477891 -0.517795,2.117664 -0.502285,0.943957 -1.445639,1.81459 -2.575476,1.750005 -0.573278,-0.03574 -1.147048,-0.268084 -1.506995,-0.730922 -0.918969,-0.953786 -1.78885,-1.971871 -2.720681,-2.904567 -0.184042,0.07854 -0.114578,0.402013 -0.173077,0.585208 -0.163539,1.059453 0.212786,2.126554 0.846222,2.968554 0.276421,0.447852 0.705284,0.820512 1.245248,0.882115 1.598094,0.282321 3.235566,-0.08777 4.750554,-0.5945 2.413661,-0.90473 4.63627,-2.23447 6.882948,-3.481488 2.564307,-1.442074 5.102793,-3.026093 7.971086,-3.788828 0.598627,-0.186076 1.236062,-0.261102 1.826172,-0.448006 -0.07619,-0.263668 -0.394602,-0.42862 -0.562644,-0.654338 -2.987143,-3.034652 -5.92741,-6.116365 -8.962991,-9.102733 -0.102068,-0.07831 -0.188089,-0.226497 -0.33646,-0.200552 z"
         id="path14" /><path
         style="display:inline;fill:none;stroke:#e10000;stroke-width:0.293;stroke-linecap:round;stroke-linejoin:miter;stroke-dasharray:none;stroke-opacity:1;paint-order:markers fill stroke"
         d="m 21.387721,22.85468 c 1.969059,-2.880611 9.636369,1.698867 12.262605,0.736347 2.626233,-0.96252 2.626233,-3.867184 2.626233,-3.867184"
         id="path18"
         sodipodi:nodetypes="csc" /><path
         style="display:inline;fill:none;stroke:#000000;stroke-width:0.5;stroke-linecap:round;stroke-linejoin:round;stroke-dasharray:none;stroke-opacity:1"
         d="M 22.104595,28.601034 19.242928,25.236138"
         id="path8" /><path
         style="display:inline;fill:none;stroke:#000000;stroke-width:0.5;stroke-linecap:round;stroke-linejoin:round;stroke-dasharray:none;stroke-opacity:1"
         d="M 20.732997,31.656744 17.457196,28.11478"
         id="path7" /><path
         id="path4"
         style="fill:none;stroke:#000000;stroke-width:0.5;stroke-linecap:round;stroke-linejoin:miter;stroke-dasharray:none;stroke-opacity:1;paint-order:markers fill stroke"
         d="m 16.594886,17.982173 c 9.690337,-6.757517 21.916799,-5.180555 21.916799,-5.180555 L 52.470728,26.89956 C 43.928627,25.163359 40.9586,26.304197 36.150452,28.496862 c -5.924442,2.70173 -8.819893,5.278049 -12.292293,5.903079 -3.472399,0.625033 -4.856707,-0.954663 -5.555838,-1.875094 -1.046484,-1.377735 -1.270206,-2.278736 -0.954912,-3.923812 0.364686,-1.902785 1.542774,-4.131779 3.993258,-3.854364 2.760557,0.312518 4.132155,3.020988 3.090435,5.312771 -1.04172,2.291784 -2.822093,2.294866 -3.698104,1.597304 -0.937548,-0.746564 -0.225708,-2.916816 1.371598,-3.055711"
         sodipodi:nodetypes="cccsssssssc" /><path
         id="path4-4"
         style="fill:none;stroke:#000000;stroke-width:0.294;stroke-linecap:round;stroke-linejoin:miter;stroke-dasharray:none;stroke-opacity:1;paint-order:markers fill stroke"
         d="m 17.848275,19.694151 c 9.690337,-6.757517 19.763911,-5.041659 19.763911,-5.041659 l 9.722711,9.931062 c -6.111414,-0.416689 -9.807423,0.939123 -13.125663,2.777918 -3.115018,1.72618 -5.764182,3.402953 -8.889342,4.791911 -3.224114,1.432937 -6.245667,1.337121 -6.944798,0.41669 -1.046484,-1.377735 -1.270206,-2.278736 -0.954912,-3.923812 0.364686,-1.902785 1.542774,-4.131779 3.993258,-3.854364 2.760557,0.312518 4.132155,3.020988 3.090435,5.312771 -1.04172,2.291784 -2.822093,2.294866 -3.698104,1.597304 -0.937548,-0.746564 -0.225708,-2.916816 1.371598,-3.055711"
         sodipodi:nodetypes="cccsssssssc" /><path
         id="path4-4-2"
         style="fill:none;stroke:#000000;stroke-width:0.294;stroke-linecap:round;stroke-linejoin:miter;stroke-dasharray:none;stroke-opacity:1;paint-order:markers fill stroke"
         d="m 43.449466,20.665442 c -2.334905,-0.159199 -4.225847,0.0033 -5.969247,0.289691"
         sodipodi:nodetypes="cc" /><path
         style="fill:none;stroke:#000000;stroke-width:0.5;stroke-linecap:round;stroke-linejoin:round;stroke-dasharray:none;stroke-opacity:1"
         d="M 24.142889,26.386305 12.12145,13.287755"
         id="path5" /><path
         style="fill:none;stroke:#000000;stroke-width:0.5;stroke-linecap:round;stroke-linejoin:round;stroke-dasharray:none;stroke-opacity:1"
         d="M 18.302321,32.524847 6.9163393,18.274647 c 0,0 -0.227237,-2.964476 1.515943,-4.23488 1.7431797,-1.270405 3.6891677,-0.752012 3.6891677,-0.752012"
         id="path6"
         sodipodi:nodetypes="cczc" /><path
         style="fill:none;stroke:#000000;stroke-width:0.294;stroke-linecap:round;stroke-linejoin:miter;stroke-dasharray:none;stroke-opacity:1;paint-order:markers fill stroke"
         d="M 31.311813,14.645128 41.241309,24.80256"
         id="path13"
         sodipodi:nodetypes="cc" /><path
         style="fill:none;stroke:none;stroke-width:0.093;stroke-linecap:round;stroke-linejoin:miter;stroke-dasharray:none;stroke-opacity:1;paint-order:markers fill stroke"
         d="m 25.388391,18.267857 c -0.134244,0.168328 -0.441991,0.392914 -0.540178,0.589285 -0.275466,0.550931 0.261424,-0.371552 -0.14732,0.343749 -0.02928,0.05125 -0.07182,0.09453 -0.09822,0.147323 -0.0073,0.01463 0.01156,0.03753 0,0.04911 -0.01156,0.01156 -0.03753,-0.01156 -0.04911,0 -0.08365,0.08365 -0.08114,0.510238 -0.04911,0.638392 0.03133,0.125309 0.104021,0.2355 0.147323,0.343751 0.09669,0.241732 0.118891,0.369597 0.294643,0.589286 0.04028,0.05035 0.12002,0.07091 0.14732,0.09821 0.250957,0.250957 -0.205904,-0.06849 0.147322,0.196429 0.386729,0.290047 0.873157,0.448302 1.276784,0.736608 0.252751,0.180533 0.433049,0.447554 0.687501,0.638392 0.239157,0.179367 -0.04598,-0.225001 0.34375,0.294643 0.03106,0.04141 0.01804,0.10591 0.04911,0.147323 0.02196,0.02928 0.07234,0.02323 0.09822,0.04911 0.12536,0.12536 0.165958,0.381021 0.245536,0.540179 0.04175,0.0835 0.107493,0.16588 0.14732,0.245536 0.03733,0.07465 0.0227,0.166351 0.04911,0.245533 0.160748,0.482243 0.111787,1.070007 0.04911,1.571429 -0.01799,0.144037 0.02836,0.300152 0,0.441966 -0.02048,0.10238 -0.07867,0.196924 -0.09821,0.294642 -0.03521,0.176073 -0.03101,1.139838 0,1.325893 0.01638,0.04911 0.03274,0.09821 0.04911,0.14732 0.01638,0.01638 0.04179,0.02715 0.04911,0.04911 0.01035,0.03106 -0.0079,0.06645 0,0.09821 0.0389,0.155602 0.187388,0.41289 0.343752,0.491072 0.01463,0.0073 0.03753,-0.01156 0.04911,0 0.01156,0.01156 0,0.03274 0,0.04911 0.03274,0.03274 0.05851,0.07439 0.09821,0.09821 0.08877,0.05327 0.205869,0.04495 0.294642,0.09822 0.0397,0.02381 0.05852,0.07439 0.09822,0.09821 0.116158,0.06969 0.160512,0.0066 0.245536,0.04911 0.05522,0.02761 0.08915,0.127931 0.14732,0.147323 0.03106,0.01034 0.06893,-0.01463 0.09822,0 0.01463,0.0073 -0.01159,0.03753 0,0.04911 0.02315,0.02315 0.06893,-0.01463 0.09821,0 0.02072,0.01035 0.0284,0.03875 0.04911,0.04911 0.02928,0.01463 0.07507,-0.02315 0.09821,0 0.06548,0.06548 -0.104172,0.04712 0.04911,0.09821 0.212291,0.07077 0.187798,-0.0537 0.333388,0.205547"
         id="path16" /></g></g></svg>
